<svg width="1463" height="229" viewBox="0 0 1463 229" fill="none" xmlns="http://www.w3.org/2000/svg">
<path d="M28 6.5H1435C1447.15 6.5 1457 16.3497 1457 28.5V133.243C1457 148.258 1442.29 158.861 1428.05 154.115L1403.15 145.82C1386.81 140.374 1369.02 148.019 1361.68 163.513L1361.34 164.257L1351.67 185.989C1345.95 198.844 1329.85 203.055 1318.59 194.809L1318.06 194.406L1285.65 169.18C1283.99 167.888 1282.22 166.754 1280.35 165.791L1279.54 165.389L1217.26 135.325C1208.85 131.267 1199.15 130.85 1190.45 134.146L1189.61 134.477L1115.85 164.644C1112.37 166.066 1109.16 168.054 1106.33 170.525L1105.77 171.026L1055.4 217.103C1047.07 224.73 1034.33 224.784 1025.93 217.308L1025.54 216.945L975.908 170.582C973.582 168.409 970.962 166.573 968.127 165.129L967.557 164.846L911.137 137.432C899.79 131.919 886.341 133.146 876.19 140.581L875.71 140.939L821.821 181.881C811.683 189.583 797.142 187.097 790.139 176.464L773.13 150.639C762.112 133.909 739.154 130.331 723.585 142.719L722.85 143.32L696.623 165.381C695.475 166.346 694.233 167.191 692.914 167.903L692.344 168.2L641.651 193.688C635.964 196.547 629.315 196.802 623.425 194.388L567.823 171.597C558.633 167.83 548.271 168.275 539.455 172.781L538.606 173.23L488.196 200.816C482.002 204.206 474.556 204.417 468.18 201.382L395.252 166.668L395.193 166.641L395.134 166.613L324.761 134.969C315.942 131.003 305.852 130.98 297.016 134.905L238.426 160.928C232.106 163.735 224.834 163.407 218.792 160.042L174.333 135.283C167.239 131.333 158.973 130.054 151.032 131.665L150.266 131.83L32.8691 158.474C19.1042 161.598 6.00019 151.134 6 137.02V28.5C6 16.5394 15.5446 6.80778 27.4326 6.50684L28 6.5Z" fill="#FFFBD2" stroke="#EBEBEB" stroke-width="12"/>
</svg>
