<svg width="1463" height="229" viewBox="0 0 1463 229" fill="none" xmlns="http://www.w3.org/2000/svg">
<path d="M28 223H1435C1447.15 223 1457 213.15 1457 201V96.2568C1457 81.4764 1442.75 70.9713 1428.71 75.1738L1428.05 75.3848L1403.15 83.6797C1386.81 89.1259 1369.02 81.4807 1361.68 65.9873L1361.34 65.2432L1351.67 43.5107C1345.95 30.6556 1329.85 26.4448 1318.59 34.6914L1318.06 35.0938L1285.65 60.3203C1283.99 61.6117 1282.22 62.7459 1280.35 63.709L1279.54 64.1113L1217.26 94.1748C1208.85 98.2331 1199.15 98.6495 1190.45 95.3545L1189.61 95.0234L1115.85 64.8564C1112.37 63.4343 1109.16 61.4462 1106.33 58.9746L1105.77 58.4736L1055.4 12.3975C1047.07 4.76965 1034.33 4.71635 1025.93 12.1924L1025.54 12.5547L975.908 58.918C973.582 61.0915 970.962 62.9272 968.127 64.3711L967.557 64.6543L911.137 92.0684C899.79 97.5814 886.341 96.3535 876.19 88.9189L875.71 88.5605L821.821 47.6191C811.841 40.037 797.596 42.3277 790.473 52.5439L790.139 53.0361L773.13 78.8613C762.112 95.5908 739.154 99.1685 723.585 86.7812L722.85 86.1797L696.623 64.1191C695.476 63.1539 694.233 62.3086 692.914 61.5967L692.344 61.2998L641.651 35.8125C636.141 33.0423 629.73 32.7162 623.979 34.8936L623.425 35.1123L567.823 57.9033C558.633 61.6703 548.271 61.2249 539.455 56.7188L538.606 56.2695L488.196 28.6836C482.195 25.3998 475.021 25.1002 468.781 27.8438L468.18 28.1182L395.252 62.832L395.193 62.8594L395.134 62.8867L324.761 94.5312C316.218 98.3728 306.482 98.5145 297.848 94.9512L297.016 94.5947L238.426 68.5723C232.303 65.853 225.288 66.0759 219.362 69.1514L218.792 69.458L174.333 94.2168C167.239 98.1675 158.973 99.4456 151.032 97.835L150.266 97.6699L32.8691 71.0264C19.1042 67.9024 6.0002 78.3655 6 92.4805V201C6 213.15 15.8497 223 28 223Z" fill="#FFFBD2" stroke="#EBEBEB" stroke-width="12"/>
</svg>
