<svg width="1464" height="203" viewBox="0 0 1464 203" fill="none" xmlns="http://www.w3.org/2000/svg">
<path d="M28 6H1436C1448.15 6.00001 1458 15.8498 1458 28V107.131C1458 122.131 1443.32 132.732 1429.08 128.014L1404.01 119.706C1387.7 114.301 1369.97 121.918 1362.62 137.354L1362.28 138.096L1352.59 159.751C1346.77 172.759 1330.31 176.887 1319.04 168.163L1286.51 142.979C1284.85 141.695 1283.08 140.568 1281.22 139.611L1280.41 139.212L1218.02 109.263C1209.37 105.113 1199.38 104.806 1190.49 108.42L1116.62 138.473C1113.14 139.885 1109.93 141.861 1107.11 144.319L1106.55 144.817L1056.07 190.738C1047.61 198.433 1034.67 198.365 1026.29 190.582L976.561 144.377C974.232 142.214 971.613 140.388 968.78 138.953L968.211 138.672L911.669 111.349C900.183 105.798 886.557 107.144 876.379 114.834L822.306 155.69C812.183 163.339 797.707 160.863 790.701 150.285L773.61 124.478C762.589 107.834 739.729 104.27 724.182 116.574L723.446 117.172L697.113 139.202C695.965 140.162 694.723 141.002 693.405 141.71L692.836 142.005L642.046 167.401C636.557 170.146 630.18 170.469 624.454 168.312L623.901 168.096L568.134 145.361C558.686 141.51 548.008 142.105 539.046 146.982L488.483 174.501C482.311 177.86 474.905 178.068 468.554 175.062L395.509 140.483L395.45 140.455L395.392 140.429L324.91 108.908C316.128 104.981 306.092 104.958 297.292 108.846L238.535 134.8C232.24 137.581 225.006 137.255 218.986 133.921L174.395 109.223C167.098 105.182 158.571 103.963 150.435 105.8L32.8438 132.342C19.0854 135.447 6.00003 124.986 6 110.882V28C6 16.0394 15.5446 6.30778 27.4326 6.00684L28 6Z" fill="#75D8CD" stroke="#EBEBEB" stroke-width="12"/>
</svg>
