<svg width="2429" height="1327" viewBox="0 0 2429 1327" fill="none" xmlns="http://www.w3.org/2000/svg">
<path d="M1223.98 0L1221.07 109.198L1205.79 677.776L1187.95 13.416L1222.01 0.755319L1223.98 0Z" fill="#212121" fill-opacity="0.1"/>
<path d="M1205.78 677.774L1078.45 54.2018L1111.22 42.0088L1205.78 677.774Z" fill="#212121" fill-opacity="0.1"/>
<path d="M1205.78 677.773L974.863 92.7585L1006.51 80.9971L1205.78 677.773Z" fill="#212121" fill-opacity="0.1"/>
<path d="M1205.78 677.777L958.468 274.867L870.562 131.644L884.122 126.608L903.113 119.522L1205.78 677.777Z" fill="#212121" fill-opacity="0.1"/>
<path d="M1205.78 677.777L823.915 246.775L758.777 173.257L778.236 166.028L794.421 159.985L1205.78 677.777Z" fill="#212121" fill-opacity="0.1"/>
<path d="M1205.79 677.773L630.699 220.983L672.53 205.373L1205.79 677.773Z" fill="#212121" fill-opacity="0.1"/>
<path d="M1205.78 677.776L472.039 280.045L525.343 260.19L1205.78 677.776Z" fill="#212121" fill-opacity="0.1"/>
<path d="M1205.79 677.776L255.734 360.612L304.758 342.341L331.015 332.558L485.568 393.559L1205.79 677.776Z" fill="#212121" fill-opacity="0.1"/>
<path d="M1205.78 677.774L14.5669 500.597L0 455.853L42.0103 440.207L1205.78 677.774Z" fill="#212121" fill-opacity="0.1"/>
<path d="M1205.78 677.776L81.9658 708.025L65.9602 658.677L62.1836 647.096L403.086 656.231L1205.78 677.776Z" fill="#212121" fill-opacity="0.1"/>
<path d="M1205.78 677.777L142.72 894.842L124.484 838.661L1205.78 677.777Z" fill="#212121" fill-opacity="0.1"/>
<path d="M1205.79 677.777L201.104 1074.36L195.241 1076.66L201.068 1074.21L194.054 1052.67L183.156 1019.18L1205.79 677.777Z" fill="#212121" fill-opacity="0.1"/>
<path d="M1205.78 677.777L260.731 1257.79L242.027 1200.21L1205.78 677.777Z" fill="#212121" fill-opacity="0.1"/>
<path d="M1205.79 677.777L490.172 1311.78L479.886 1320.88L479.526 1320.92L389.211 1326.42L1205.79 677.777Z" fill="#212121" fill-opacity="0.1"/>
<path d="M1205.79 677.777L705.906 1307.1H705.87L644.977 1310.85L1205.79 677.777Z" fill="#212121" fill-opacity="0.1"/>
<path d="M1205.77 677.777L870.016 1297.11L851.205 1298.26L827.898 1299.7H827.862L823.941 1299.95L1205.77 677.777Z" fill="#212121" fill-opacity="0.1"/>
<path d="M1205.78 677.777L1001.66 1289.12L963.57 1291.42L1205.78 677.777Z" fill="#212121" fill-opacity="0.1"/>
<path d="M1205.77 677.777L1115.85 1282.14L1081.93 1284.23L1205.77 677.777Z" fill="#212121" fill-opacity="0.1"/>
<path d="M1221.83 1275.7L1205.32 1276.71L1189.64 1277.65L1198.59 945.593L1205.79 677.777L1221.83 1275.7Z" fill="#212121" fill-opacity="0.1"/>
<path d="M1326.52 1269.3L1294.07 1271.28L1205.77 677.777L1326.52 1269.3Z" fill="#212121" fill-opacity="0.1"/>
<path d="M1436.58 1262.61L1401.69 1264.73L1205.77 677.777L1436.58 1262.61Z" fill="#212121" fill-opacity="0.1"/>
<path d="M1560.06 1255.1L1540.63 1256.28L1520.06 1257.54H1520.02L1406.4 1047.89L1205.77 677.777L1560.06 1255.1Z" fill="#212121" fill-opacity="0.1"/>
<path d="M1709.11 1246L1659.54 1249.02H1659.51L1205.77 677.777L1709.11 1246Z" fill="#212121" fill-opacity="0.1"/>
<path d="M1905.99 1234.02L1838.27 1238.15L1205.77 677.777L1905.99 1234.02Z" fill="#212121" fill-opacity="0.1"/>
<path d="M2149.57 1189.42L2137.55 1219.92L2093.49 1222.62H2093.46L1205.77 677.777L2149.57 1189.42Z" fill="#212121" fill-opacity="0.1"/>
<path d="M2218.08 1015.77L2205.96 1046.52L2197.08 1069.07L2185.79 1064.61L1205.77 677.777L2218.08 1015.77Z" fill="#212121" fill-opacity="0.1"/>
<path d="M2287.93 838.769L2266.03 894.267L1205.77 677.777L2287.93 838.769Z" fill="#212121" fill-opacity="0.1"/>
<path d="M2363.72 646.699L2339.44 708.24L1205.77 677.775L2363.72 646.699Z" fill="#212121" fill-opacity="0.1"/>
<path d="M2429 481.213L2422.89 496.751L1205.77 677.777L2050.55 505.312L2344.19 445.354L2357.21 450.857L2429 481.213Z" fill="#212121" fill-opacity="0.1"/>
<path d="M2149.1 362.878L1205.77 677.776L2078.93 333.169L2149.1 362.878Z" fill="#212121" fill-opacity="0.1"/>
<path d="M1945.56 276.773L1205.77 677.777L1894.38 255.156L1945.56 276.773Z" fill="#212121" fill-opacity="0.1"/>
<path d="M1792.23 211.955L1205.77 677.773L1751.15 194.583L1757.59 197.317L1771.22 203.071L1792.23 211.955Z" fill="#212121" fill-opacity="0.1"/>
<path d="M1665.8 158.51L1205.77 677.776L1630.23 143.439L1665.8 158.51Z" fill="#212121" fill-opacity="0.1"/>
<path d="M1553.62 111.034L1205.77 677.777L1520.56 97.0781L1553.62 111.034Z" fill="#212121" fill-opacity="0.1"/>
<path d="M1447.22 66.0753L1205.77 677.778L1414.6 52.2637L1447.22 66.0753Z" fill="#212121" fill-opacity="0.1"/>
<path d="M1339.9 20.6805L1205.77 677.775L1264.94 280.044L1305.66 6.18555L1314.14 9.78232L1339.9 20.6805Z" fill="#212121" fill-opacity="0.1"/>
</svg>
